<?xml version="1.0" encoding="utf-8"?>

<!DOCTYPE svg PUBLIC "-//W3C//DTD SVG 1.1//EN" "http://www.w3.org/Graphics/SVG/1.1/DTD/svg11.dtd">
<svg version="1.1" id="Layer_1" xmlns="http://www.w3.org/2000/svg" xmlns:xlink="http://www.w3.org/1999/xlink" x="0px" y="0px"
	 viewBox="0 0 4375 2917" enable-background="new 0 0 4375 2917" xml:space="preserve">
<g>
	<linearGradient id="SVGID_1_" gradientUnits="userSpaceOnUse" x1="2187.5" y1="2917" x2="2187.5" y2="-9.094947e-13">
		<stop  offset="0.1057" style="stop-color:#917C75"/>
		<stop  offset="0.5" style="stop-color:#4C4D5B"/>
		<stop  offset="1" style="stop-color:#08061F"/>
	</linearGradient>
	<rect fill="url(#SVGID_1_)" width="4375" height="2917"/>
	<path fill="#EEF2C6" d="M3342.42,66.49c6.71-1.84,13.28,5.86,10.26,12.18c-2.18,5.95-10.89,7.56-14.94,2.63
		C3333.02,76.62,3335.91,67.65,3342.42,66.49z"/>
	<path fill="#EFF3C7" d="M1426.32,74.33c5.71-2.83,13.21,2.28,12.5,8.66c0.12,6.71-8.5,11.11-13.88,7.07
		C1419.08,86.55,1419.98,76.8,1426.32,74.33z"/>
	<path fill="#EFF2C6" d="M4013.44,75.64c5.97-2.51,13.09,2.94,12.14,9.36c-0.41,7.15-10.22,10.62-15.12,5.53
		C4005.63,86.34,4007.4,77.65,4013.44,75.64z"/>
	<path fill="#EFF3C6" d="M324.31,88.19c6.04-2.89,13.55,3.06,12.31,9.58c-0.67,6.51-9.22,10.11-14.3,5.92
		C316.7,99.91,317.96,90.46,324.31,88.19z"/>
	<path fill="#EFF3C7" d="M2518.41,105.54c5.97-2.58,13.25,2.91,12.21,9.38c-0.46,6.76-9.4,10.43-14.51,6
		C2510.74,117.02,2512.08,107.66,2518.41,105.54z"/>
	<path fill="#EEF2C6" d="M3692.34,106.36c5.68-2.73,13.06,2.34,12.41,8.66c0.19,7.03-9.25,11.32-14.48,6.68
		C3684.94,117.84,3686.15,108.65,3692.34,106.36z"/>
	<path fill="#EFF3C7" d="M1764.45,136.59c6.25-2.19,13.16,3.9,11.56,10.39c-1.08,6.89-10.82,9.72-15.34,4.36
		C1756.02,146.9,1758.36,138.36,1764.45,136.59z"/>
	<path fill="#EFF3C6" d="M150.31,161.26c5.75-2.8,13.19,2.34,12.43,8.73c0.17,6.96-9.15,11.23-14.37,6.64
		C142.96,172.82,144.17,163.63,150.31,161.26z"/>
	<path fill="#EFF3C7" d="M4262.34,163.32c5.71-2.97,13.34,2.25,12.58,8.67c0.13,6.71-8.64,11.06-13.94,6.97
		C4255.24,175.41,4256.07,165.82,4262.34,163.32z"/>
	<path fill="#EFF3C7" d="M3504.43,164.61c5.95-2.53,13.11,2.89,12.21,9.3c-0.42,6.82-9.48,10.59-14.6,6.06
		C3496.67,176.02,3498.16,166.75,3504.43,164.61z"/>
	<path fill="#EFF3C7" d="M1139.37,169.46c6.56-2.4,13.85,4.65,11.36,11.24c-1.7,6.65-11.41,8.46-15.51,3.05
		C1131.12,179.19,1133.52,171.17,1139.37,169.46z"/>
	<path fill="#EFF3C7" d="M693.36,171.45c6.61-2.55,14.06,4.61,11.45,11.27c-1.68,6.31-10.75,8.3-15,3.43
		C685.11,181.83,687.33,173.26,693.36,171.45z"/>
	<path fill="#EFF2C7" d="M2291.45,182.43c5.81-3.44,14.07,1.8,13.13,8.58c0.03,6.8-9.02,10.96-14.19,6.59
		C2285.03,194.06,2285.75,185.22,2291.45,182.43z"/>
	<path fill="#EFF3C6" d="M3104.35,182.34c6.1-3.29,14.12,2.9,12.64,9.62c-0.84,6.23-8.89,9.8-13.95,5.95
		C3097.39,194.41,3098.15,184.82,3104.35,182.34z"/>
	<path fill="#EFF3C7" d="M953.43,192.59c5.94-3.04,13.64,2.7,12.48,9.26c-0.39,6.56-8.91,10.28-14.05,6.31
		C946.25,204.57,947.14,194.93,953.43,192.59z"/>
	<path fill="#EFF2C6" d="M2687.42,201.63c5.71-1.85,12.22,3.37,11.37,9.38c-0.04,7.12-9.79,10.94-14.81,6.03
		C2678.69,212.79,2680.8,203.19,2687.42,201.63z"/>
	<path fill="#EFF3C7" d="M2891.4,209.5c5.38-1.61,11.37,2.86,11.32,8.48c0.35,5.5-5.34,10.29-10.68,9.06
		C2882.762,225.267,2882.148,211.943,2891.4,209.5z"/>
	<path fill="#464654" d="M5.71,240.15c24.03,0.4,48.07,0.07,72.1,0.15c3.01,3.77,4.77,8.28,6.51,12.72
		c6.213,0.492,87.762-4.801,121.48,37.15c2.23,2.41,3.5,6.48,7.19,6.91c7.22,1.06,14.67,2.04,21.08,5.8
		c6.7,3.57,11.67,10.42,12.19,18.09c1.21,10.51-2.94,20.51-7.41,29.76c20.233-4.749,46.127-8.393,61.79,5.61
		c15.061,12.994,11.414,33.7,10.08,44.69c23.54,4.55,47.31,7.9,70.86,12.38c45.108,10.126,59.817,40.615,20.98,34.97
		c-132.3-22.35-264.54-45.07-396.84-67.41C5.61,334.03,5.62,287.09,5.71,240.15 M144.3,338.26c-7.07,1.7-8.6,12.18-2.5,15.99
		c5.43,4.19,14.35-0.37,14.01-7.24C156.28,341.11,149.82,336.36,144.3,338.26 M394.47,428.64c-6.34,1.88-8.4,10.91-3.32,15.24
		c4.5,4.63,13.07,2.1,14.71-4.02C408.18,433.29,401.01,426.25,394.47,428.64z"/>
	<path fill="#EFF2C6" d="M1354.39,264.52c5.97-2.69,13.28,3.04,12.15,9.49c-0.49,7.04-10.11,10.38-15,5.45
		C1346.69,275.34,1348.36,266.55,1354.39,264.52z"/>
	<path fill="#EFF3C7" d="M508.4,279.48c5.69-2.85,13.04,2.23,12.49,8.53c0.27,6.83-8.56,11.28-13.95,7.13
		C501.14,291.63,502.09,281.9,508.4,279.48z"/>
	<path fill="#EFF3C7" d="M2038.34,286.41c5.73-2.78,13.03,2.28,12.48,8.61c0.14,6.75-8.58,11.23-13.96,7.12
		C2030.98,298.57,2031.94,288.83,2038.34,286.41z"/>
	<path fill="#EFF3C7" d="M3857.4,291.48c6.29-2.88,13.94,3.87,11.98,10.5c-1.29,6.16-9.5,9.04-14.31,4.97
		C3849.56,303.06,3851.02,293.59,3857.4,291.48z"/>
	<path fill="#EFF3C7" d="M3998.46,291.63c5.94-3,13.62,2.65,12.48,9.24c-0.3,6.91-9.69,10.59-14.64,5.85
		C3991.23,302.87,3992.51,293.91,3998.46,291.63z"/>
	<path fill="#EEF2C6" d="M3286.48,332.61c6.07-3.33,14.18,2.61,12.8,9.42c-0.62,6.82-9.86,10.16-14.75,5.46
		C3279.63,343.63,3280.82,335.11,3286.48,332.61z"/>
	<path fill="#EFF2C6" d="M144.3,338.26c5.52-1.9,11.98,2.85,11.51,8.75c0.34,6.87-8.58,11.43-14.01,7.24
		C135.7,350.44,137.23,339.96,144.3,338.26z"/>
	<path fill="#EEF2C7" d="M3557.44,363.37c5.83-3.34,14.01,1.8,13.17,8.57c-0.07,7.04-9.64,11.16-14.73,6.22
		C3550.93,374.42,3551.94,366.05,3557.44,363.37z"/>
	<path fill="#EFF3C7" d="M2733.43,380.46c6.47-3.63,14.86,3.56,12.52,10.52c-1.46,6.1-9.82,8.76-14.45,4.49
		C2726.53,391.65,2727.6,382.87,2733.43,380.46z"/>
	<path fill="#EFF3C7" d="M1864.38,392.38c5.68-2.92,13.31,2.21,12.5,8.61c0.23,7.02-9.32,11.37-14.48,6.55
		C1857.21,403.76,1858.36,394.69,1864.38,392.38z"/>
	<path fill="#EFF3C7" d="M2347.41,401.35c5.79-3.18,13.6,2.11,12.89,8.66c-0.11,7-9.5,11.19-14.68,6.36
		C2340.55,412.56,2341.64,403.89,2347.41,401.35z"/>
	<path fill="#EFF3C6" d="M394.47,428.64c6.54-2.39,13.71,4.65,11.39,11.22c-1.64,6.12-10.21,8.65-14.71,4.02
		C386.07,439.55,388.13,430.52,394.47,428.64z"/>
	<path fill="#EFF2C7" d="M2923.31,433.26c5.51-2.9,12.98,1.42,12.97,7.72c0.53,6.69-7.67,11.81-13.39,8.18
		C2916.62,446.05,2916.92,436.05,2923.31,433.26z"/>
	<path fill="#EFF3C7" d="M999.35,477.43c6.38-2.33,13.48,3.94,11.69,10.55c-1.26,6.7-10.77,9.35-15.24,4.18
		C991.08,487.83,993.3,479.22,999.35,477.43z"/>
	<path fill="#464654" d="M3995.66,484.4c35.7,6.23,71.44,12.24,107.18,18.24c2.384-4.664,4.677-12.868,23.9-15
		c11.29-1.24,22.84,0.34,33.57,4.02c9.36,3.14,16.81,9.84,25.06,15.01c40.51,26.557,40.017-10.936,140.44,10.6
		c6.238-5.104,11.312-9.803,27.14-10.18c5.4-0.19,11.05,1.57,16.29-0.61c-0.34,18.52,0.07,37.06-0.3,55.58
		c-19.254-2.916-0.09,0.195-387.38-65.62c-3.83-0.6-7.62-2.1-9.81-5.45C3975.775,483.879,3987.578,483.602,3995.66,484.4z"/>
	<path fill="#EFF3C7" d="M3187.42,486.6c6.03-1.88,12.5,3.98,11.19,10.18c-0.74,6.98-10.58,10.09-15.21,4.81
		C3178.47,497.1,3180.99,488.1,3187.42,486.6z"/>
	<path fill="#EFF3C7" d="M655.39,522.53c5.81-2,12.47,3.35,11.48,9.49c-0.14,6.75-9.09,10.6-14.23,6.34
		C646.83,534.41,648.54,524.28,655.39,522.53z"/>
	<path fill="#EFF3C7" d="M1299.37,541.4c6.03-2.92,13.6,2.98,12.37,9.54c-0.62,6.61-9.46,10.3-14.46,5.79
		C1291.86,552.91,1293.2,543.68,1299.37,541.4z"/>
	<path fill="#EFF3C7" d="M1711.24,547.27c3.05-4.79,10.72-5.21,14.26-0.74c2.98,3.26,2.62,8.28,0.21,11.76
		c-1.25,0.99-2.55,1.92-3.79,2.9c-2.9-0.03-6.18,0.48-8.54-1.58C1709.49,556.91,1708.42,551.11,1711.24,547.27z"/>
	<path fill="#EEF2C6" d="M2584.3,547.2c5.75-2.76,13.06,2.39,12.38,8.73c0.11,6.96-9.04,11.19-14.32,6.7
		C2576.8,558.87,2578.04,549.49,2584.3,547.2z"/>
	<path fill="#EEF2C6" d="M2081.43,581.53c5.68-1.58,11.9,3.56,11.05,9.5c-0.13,6.95-9.58,10.94-14.61,6.1
		C2072.17,592.91,2074.5,582.86,2081.43,581.53z"/>
	<path fill="#EFF2C6" d="M3951.45,599.51c5.73-3.17,13.55,1.97,12.91,8.49c0,6.57-8.19,10.96-13.64,7.27
		C3944.75,611.99,3945.18,602.22,3951.45,599.51z"/>
	<path fill="#EFF3C7" d="M99.36,609.42c5.41-1.65,11.51,2.91,11.31,8.58c0.29,5.36-5.28,10.1-10.52,8.91
		c-4.23-0.64-7.56-4.66-7.5-8.91C92.68,614.09,95.53,610.33,99.36,609.42z"/>
	<path fill="#EFF2C6" d="M3691.47,624.5c5.78-3.53,14.1,1.61,13.27,8.4c0.08,6.9-9.11,11.13-14.32,6.63
		C3685.22,635.99,3685.93,627.34,3691.47,624.5z"/>
	<path fill="#EEF2C6" d="M2830.45,634.46c4.53-2.54,10.82-0.2,12.6,4.69c1.6,4.24-0.33,9.6-4.6,11.38
		c-4.49,2.38-10.45-0.17-12.17-4.84C2824.51,641.59,2826.5,636.45,2830.45,634.46z"/>
	<path fill="#EFF3C7" d="M4266.41,645.59c5.7-1.87,12.27,3.31,11.43,9.35c-0.04,6.81-9.13,10.93-14.3,6.49
		C4257.7,657.44,4259.55,647.3,4266.41,645.59z"/>
	<path fill="#EFF2C6" d="M3420.44,659.39c4.01-2.1,9.54-0.7,11.82,3.33c2.6,4.07,1.09,10.09-3.17,12.39
		c-4.04,2.56-9.77,1.01-12.15-3.05C3414.08,667.87,3415.95,661.59,3420.44,659.39z"/>
	<path fill="#EFF3C7" d="M3213.38,667.53c5.82-2.02,12.5,3.34,11.51,9.5c-0.16,6.71-9.08,10.58-14.19,6.32
		C3204.81,679.4,3206.56,669.34,3213.38,667.53z"/>
	<path fill="#EFF3C7" d="M2497.3,700.22c5.75-2.87,13.2,2.42,12.47,8.77c0.05,6.93-9.15,11.15-14.38,6.61
		C2489.93,711.8,2491.13,702.6,2497.3,700.22z"/>
	<path fill="#464654" d="M4315.57,750.47c3.59,2.65,7.53-0.66,10.99-1.97c13.81-6.16,27.85-12.12,42.39-16.34
		c0.039,7.275,0.205,314.282-0.05,317.91c-11.815-0.99-1370.774-233.006-1426.9-242.04c-11.1-2.2-23.08-4.93-30.91-13.77
		c-0.08-3.02-0.98-6.5,1.15-9.06c11.114-14.946,47.722-19.258,79.9-13.38c388.415,65.958,364.753,62.14,369.45,62.14
		c10.47-68.953,62.122-72.232,119.72-32.39c61.821-43.364,143.826-54.69,219-18.87c2.43,1.23,4.94,2.32,7.51,3.33
		c66.878-54.365,168.153-39.937,248.77-9.63c6.51,2.25,12.63,5.5,19.21,7.58c12.425-13.684,28.569-30.516,66.84-25.61
		c34.331,5.306,59.621,25.008,63.18,26.11c3.25-1.85,5.83-4.65,8.99-6.67c10.86-7.2,25.36-8.11,37.23-2.87
		c7.07,2.65,12.74,7.69,18.7,12.15c2.68-8.57,4.78-17.4,8.92-25.44C4204.724,709.938,4265.315,722.134,4315.57,750.47z"/>
	<path fill="#EFF3C7" d="M391.41,727.58c6.01-1.89,12.52,4.03,11.2,10.2c-0.78,6.95-10.56,10.12-15.21,4.82
		C382.46,738.12,384.98,729.08,391.41,727.58z"/>
	<path fill="#EFF3C7" d="M1118.42,734.48c4.92-1.25,10.4,2.43,10.96,7.52c0.75,4.65-2.79,9.37-7.41,10.14
		c-5.3,1.08-10.85-3.72-10.41-9.14C1111.39,738.99,1114.62,735.38,1118.42,734.48z"/>
	<linearGradient id="SVGID_2_" gradientUnits="userSpaceOnUse" x1="1550.8828" y1="762.9466" x2="1760.8538" y2="399.2662">
		<stop  offset="0" style="stop-color:#757978"/>
		<stop  offset="0.0503" style="stop-color:#80847F"/>
		<stop  offset="0.2525" style="stop-color:#A7AB98"/>
		<stop  offset="0.4521" style="stop-color:#C6CAAC"/>
		<stop  offset="0.646" style="stop-color:#DCE0BB"/>
		<stop  offset="0.8317" style="stop-color:#E9EDC3"/>
		<stop  offset="1" style="stop-color:#EEF2C6"/>
	</linearGradient>
	<path fill="url(#SVGID_2_)" d="M1668.42,706.28c-5.47-4.12-11.21-7.85-16.59-12.08c-88.368-66.641-120.149-196.926-61.57-300.08
		c19.742-35.57,42.582-54.789,51.47-63.63c-85.763,11.107-158.18,71.57-186.61,147.7c-29.926,73.73-17.51,168.325,37.12,233.28
		c11.558,15.32,29.714,30.456,33.26,33.71c12.716,8.763,76.979,64.422,180.22,50.61c18.398-2.094,49.741-10.507,66.41-19.44
		c13.15-5.51,25.44-12.94,37.15-21.05c6.14-4.45,12.42-8.8,17.81-14.17C1736.639,751.924,1684.97,714.618,1668.42,706.28z"/>
	<path fill="#4C3F3E" d="M201.2,805.25c12.19-0.29,24.39-0.32,36.58,0.01c1.631,7.378,27.323,143.168,27.75,146.14
		c0.91,9.15-0.13,18.36,0.57,27.53c7.7,0.66,15.41,0.05,23.11,0.12c1.55,9.49,0.98,19.21,0.67,28.8
		c-7.91,0.58-15.83-0.13-23.75,0.34c-0.41,10.82-0.38,21.68,0.09,32.49c-0.941,11.693-0.492,46.458,0.13,51.94
		c12.4,1.13,24.88-0.41,37.27,0.75c0.51,6.5,0.67,13.06,0.22,19.57c-0.114,3.326-1.619,3.034-26.75,26.14
		c-3.65,3.31-7.9,6.18-10.56,10.42c-0.897,4.015-0.629,383.427-0.5,387.52c12.52,0.7,25.08-0.19,37.62,0.4
		c0.62,7.17,0.28,14.37,0.06,21.56c-12.34,0.88-24.74-0.31-37.08,0.53c-0.14,0.39-0.41,1.17-0.54,1.56
		c-0.28,11.23-0.35,22.49-0.01,33.74c12.59,0.45,25.2-0.22,37.79,0.27c0.25,7.03-0.11,14.07,0.3,21.11
		c-11.67,11.33-24.2,21.78-36.07,32.92c-2.51,1.84-2.22,5.09-2.25,7.87c0.232,18.368-0.188,441.43,0.17,480.96
		c9.3,0.22,18.61,0.16,27.92,0.05c3.78-15.2,9.2-30.11,17.77-43.3c17.83-28.12,46.64-49.19,79.07-56.99
		c8.8-2.33,17.88-3.16,26.91-3.98c-0.1-21.57,0-43.15-0.07-64.72c0.05-3.88-0.42-7.84,0.53-11.62c1.39-3.05,6.19-3.21,8.08-0.6
		c1.806,3.293,0.402,7.793,0.98,77c68.461,3.737,112.77,52.994,123.16,103.98c10.16,0.75,20.35-0.05,30.52,0.36
		c0.23,12.63,0.1,25.27,0.11,37.91c0.29,2.75-1.99,4.54-3.8,6.21c-10.44,9.21-20.7,18.63-31.03,27.95
		c-3.92,3.08-3.25,8.4-3.28,12.81c0.21,49.677-0.305,116.534,0.23,128.69c30.55-0.08,61.1-0.08,91.65,0
		c0.42-6.86-0.07-13.73,0.28-20.58c15.88-0.33,31.77,0.31,47.64-0.28c0.09-10.66-0.36-21.34,0.15-31.98
		c4.39-0.28,35.563-0.48,40.83,0.14c0.18,10.65-0.35,21.32,0.2,31.98c15.72,0.28,31.45-0.11,47.18,0.14
		c0.56,6.84,0.1,13.7,0.27,20.57c74.79-0.06,149.58-0.06,224.37,0c0.2-6.86-0.29-13.72,0.24-20.56c13.59-0.1,27.18-0.22,40.77,0.08
		c0.16,6.82-0.44,13.67,0.36,20.48c21.7,0.09,43.4-0.33,65.1,0.17c0.51,8.95,0.04,17.93,0.15,26.9c21.28,0.31,42.57,0.18,63.84,0.07
		c0.419-11.693,0.177-303.545,0.03-305.95c-4.98-0.34-9.97-0.3-14.95-0.08c-0.48-7.3-0.23-14.63-0.15-21.93
		c5.15-0.3,10.32-0.19,15.49-0.3c0.51-7.47,0.28-14.95,0.21-22.42c-4.16-0.12-8.31-0.24-12.46-0.35
		c-0.06-5.27-0.05-10.53,0.02-15.78c4.05-0.33,8.11-0.48,12.19-0.48c0.37-3.81,0.45-7.64,0.28-11.45
		c-4.16-0.17-8.32-0.29-12.48-0.36c-0.05-5.49-0.05-10.98-0.01-16.46c4.15-0.11,8.3-0.22,12.46-0.36c0.18-7.24-0.35-14.5,0.42-21.71
		c7.84-29.69,14.87-59.59,22.87-89.22c7.63-0.18,15.27-0.16,22.91-0.01c2.429,7.623,22.411,87.395,22.65,88.41
		c1.43,7.43,0.38,15.02,0.67,22.54c4.29,0.27,8.65-0.08,12.91,0.73c-0.68,5.33-0.55,10.71-0.53,16.09
		c-4.13,0.05-8.27,0.19-12.39,0.4c-0.12,3.77-0.06,7.57,0.24,11.37c4.04,0.03,8.09,0.18,12.13,0.49c0.08,5.26,0.09,10.53,0.01,15.8
		c-4.13,0.11-8.25,0.24-12.36,0.39c0.04,7.45-0.14,14.9,0.18,22.35c5.16,0.15,10.33,0.05,15.49,0.32
		c0.26,7.28,0.11,14.58-0.04,21.88c-5.04-0.01-10.07-0.23-15.1,0.14c-0.253,9.453-0.371,293.969,0.01,305.98
		c10.81,0.101,91.814,0.206,97.88-0.07c0.3-18.15-0.51-36.34,0.34-54.46c54.83,0.21,109.67-0.25,164.49,0.23
		c-0.54,30.16-0.1,60.35-0.27,90.52c8.222,0.506,167.531,0.242,168.54,0.24c0.65,24.82-0.21,49.67,0.32,74.5
		c1.765,0.3,214.256,17.881,449.85,19.57c4.44,0.07,8.96,0.24,13.33-0.88c3.61,2.32,7.95,4.15,9.76,8.39
		c-121.011,15.303-333.689,24.047-1161.67,185.49c-12.06,2.27-24.07,4.81-36.16,6.91c-26.367-9.664-149.852-50.106-297.84-82.71
		c-202.924-44.646-432.817-71.035-639.34-56.35c-0.373,19.076-0.217,263.754-0.12,295.56c-1.99,0.15-3.97,0.33-5.96,0.54v-596.67
		c1-0.015,31.37-0.215,38.68,0.36c0.19,8.99-0.36,17.99,0.19,26.99c23.75,0.22,47.52,0.22,71.27,0
		c0.411-15.021,0.167-80.787,0.11-82.03c0.041-2.284-0.53-2.743-17.15-17.33c-23.414-22.551-20.309-15.358-20.89-24.61
		c0.2-11.6-0.02-23.2,0.04-34.79c4.549-0.579,91.186,0.041,100.69-0.32c0.224-41.93,0.063-451.175,0.11-482.98
		c0.42-3.34-1.96-5.77-4.24-7.76c-11.38-9.98-22.37-20.38-33.82-30.26c0.22-7.28-0.14-14.56,0.12-21.83
		c12.6-0.46,25.21,0.19,37.8-0.26c0.32-11.63,0.2-23.28-0.01-34.91c-12.52-1.58-25.21,0.18-37.78-0.87
		c-0.32-7.28-0.37-14.57,0.01-21.84c12.6-0.32,25.22,0.32,37.82-0.27c0,0,0.07-384.005,0.07-384.01c0.27-2.98-1.54-5.45-3.71-7.26
		c-9-7.63-17.49-15.84-26.31-23.68c-8.791-8.118-8.597-3.428-7.78-28.73c12.56-0.49,25.14,0.33,37.7-0.38
		c0.52-9.06,0.52-18.17-0.2-27.21c0.45-19.15,0.5-38.33,0.11-57.48c-7.9-0.47-15.83,0.21-23.73-0.35
		c-0.52-9.24-0.43-18.52-0.03-27.76c7.76-0.89,15.62,0.59,23.33-0.84c1.74-10.07-0.49-20.43,1.33-30.52
		C177.51,929.059,197.03,824.518,201.2,805.25z"/>
	<path fill="#EFF3C6" d="M2774.33,835.22c6.96-1.37,12.83,7.17,9.05,13.19c-2.86,5.79-12.05,6.16-15.34,0.62
		C2764.18,843.89,2768.01,835.76,2774.33,835.22z"/>
	<path fill="#5B5F6A" d="M3298.29,1104.71c2.59,2.38,4.75,5.41,7.97,7.03c2.58,0.18,5.16-0.39,7.76-0.71
		c20.626-3.117,46.065,0.63,52.51,20.54c2.29,6.44,1.79,13.38,1.62,20.09c5.66-1.79,11.81-3.64,17.69-1.59
		c5.65,1.48,9.26,6.35,12.62,10.77c8.713-1.292,36.355-8.886,53.13,9.19c2.38,3.81,4.24,7.93,6.59,11.79
		c27.376-0.555,63.208,3.062,81.39,23.59c2.26,2.36,3.62,6.43,7.42,6.56c5.69,0.79,11.67,1.94,16.18,5.79
		c4.81,3.96,6.49,10.74,5.35,16.72c-0.8,4.71-2.85,9.07-4.42,13.54c12.212-1.958,35.984-6.999,45.83,9.1
		c2.13,3.46,3.13,7.49,3.84,11.48c0.06,4.78-0.57,9.55-0.84,14.33c18.772,4.44,48.846,6.385,62.74,13.38
		c5.51,2.75,11.63,5.8,14.45,11.63c1.08,1.96,0.99,4.86-1.12,6.1c-4.04,2.41-8.99,1.99-13.44,1.47
		c-545.17-93.042-614.353-101.553-756.74-136.38c-16.358-3.735-80.997-19.354-94.56-29.43c-4.14-3.32-2.41-10.34,2.37-12.11
		c10.35-4.53,21.99-2.81,32.95-2.72c0.451-5.281-1.198-18.001,20.12-21.24c8.64-1.46,17.37-0.23,26.04,0.3
		c-1.669-20.46,1.901-29.179,11.64-37.94c9.88-6.17,22.14-6.78,33.34-4.68c2.64,0.24,5.83,1.63,8.06-0.55
		c5.793-4.816,27.048-27.042,60.22-22.81c17.99,1.98,34.22,11.2,48.06,22.43c5.27-2.77,10.15-6.26,15.61-8.7
		C3147.021,1031.194,3231.621,1041.42,3298.29,1104.71z"/>
	<path fill="#08061F" d="M2390.98,1658.94c1.58-3.98,4.54-8.25,9.09-8.9c6.2-0.79,5.061,5.917,29.75,24.14
		c3.835,3.198,8.271-0.543,20.56,3.41c27.544,8.903,134.679,12.766,163.62,13.62c41.172-1.391,108.823-3.928,150.59-10.64
		c8.28-1.02,15.95-5.26,24.42-4.97c3.01-0.05,6.43,0.52,8.9-1.69c7.69-5.9,15.42-11.92,21.7-19.35c1.93-2.11,4.14-4.8,7.33-4.52
		c6.396,0.436,13.157,10.782,9.17,21.11c-3.3,8.74-8.18,16.79-13.52,24.41c-2.89,3.28-0.47,7.56,0.69,11.05
		c0.656,22.654-2.047,18.664-3.13,32.97c17.979,2.777,26.446,5.005,41.46,15.3c13.237,13.424,10.799,16.004,14.3,22.3
		c6.51,5.212,11.873,1.96,45.88,34.09c21.462,20.969,42.725,45.254,69.91,63.01c48.831,31.806,104.927,25.67,138.63-0.4
		c30.769-23.027,43.57-57.9,54-80.55c11.49-24.042,18.995-30.853,21.54-35.53c-0.19-4.359-9.446-20.138-7.32-33.41
		c0.76-4.35,6.06-4.17,9.43-3.56c10.22,2.02,18.82,8.35,27.15,14.26c9.785-5.263,25.719-16.28,50.27-6.5
		c9.27,3.35,17.71,9.25,27.73,10.34c22.507,2.669,57.994-1.057,75.9-1.28c7.67-0.12,13.89,5.59,17.37,11.98
		c2.71,4.46,3.25,10.08,6.97,13.96c5.66,6.12,9.62,13.59,12.75,21.27c10.028,26.146-6.674,22.948-7.35,30.91
		c-0.89,5.2-3.57,10.56-9.1,11.94c-15.749,4.683-45.109,5.723-61.34,8.48c-11.127,42.896-17.191,106.423-10.8,167.98
		c4.79,45.93,17.3,93.671,25.89,108.45c38.444,69.844,98.541,113.397,173.45,85.24c2.82-1.22,6.89-1.84,7.49-5.49
		c7.53-28.54,14.23-57.38,18.38-86.62c1.32-5.55-2.98-9.91-4.82-14.72c-11.203-25.15-3.158-63.99,10.51-88.84
		c15.224-25.181,26.896-25.505,35.23-25.61c4.441-13.117,9.31-35.066,8.44-51.8c-4.43-0.75-8.6,0.82-11.88,3.71
		c-0.19-0.63-0.57-1.88-0.76-2.51c-2.99,4.18-2.31,9.38-1.93,14.2c-9.456-6.03-7.274-9.316-11.07-16.54
		c0.25,3.24,0.84,6.44,1.37,9.67c-6.378-8.586-4.6-11.779-2.95-20.48c-1.32,2.05-2.63,4.11-3.94,6.17
		c-0.74-6.92,3.65-13.08,8.55-17.47c9.869-8.496,32.086-17.833,22.23-31.16c-2.49-3.56-6.58-5.55-9.1-9.03
		c-1.35-3.32,3.01-6.35,1.72-9.64c-2.92-1.74-6.95-1.4-9.25-4.04c0.12-5.54,4.23-9.93,7.75-13.81c3.7-4.17,9.18-6.18,12.93-10.27
		c0.99-3.41-4.03-5.67-2.43-9.12c0.48-2.93,2.92-6.56,0.17-9.01c-2.89-2.95-5.52-6.23-6.12-10.42c2.63-3.19,6.61-4.22,10.59-4.5
		c0.37-5.12-0.53-11.1,3.44-15.1c24.218-28.014,112.691,23.609,95.19,66.24c-1.67,4.4-5.91,6.74-9.12,9.83
		c-0.91,2.38-0.85,4.99-1.1,7.52c4.02,2.33,8.31,4.58,11.03,8.54c2.46,3.8,7.28,4.24,11.13,5.96
		c33.372,13.888,41.587,42.022,47.96,56.92c15.999,39.989,33.782,95.51,20.32,136.4c-2.08,6.12-1.22,12.67-1.33,19.01
		c-0.15,33.18,1.54,66.33,3.89,99.41c6.375,117.453,21.768,178.957,10.66,202.77c-1.55,3.67-5.11,5.84-7.22,9.1
		c-0.059,3.994,4.013,27.783-3.63,44.06c-2.04,4.61-6.13,7.77-10.49,10.03c-0.53,7.87,1.57,15.7,0.8,23.57
		c-1.821,9.033-15.24,16.079-30.57,16.92c-4.378,0.812-3.099-3.705-6.43,27.4c-0.66,7.56-1.84,15.11-1.68,22.74
		c75.758,8.331,382.161,54.913,624.17,119.05V2917H0v-50.67c479.66-50.608,954.339-168.172,1509.14-262.2
		c375.381-63.781,590.729-82.027,631.95-87.24c-1.81-4.24-6.15-6.07-9.76-8.39c-10.357-9.418-7.663-13.661-6.56-22.55
		c3.616-27.368,7.804-98.714,5.8-176.24c-1.022-34.104-1.032-46.082,3.51-56.6c2.75-8.18,9.58-13.76,14.65-20.42
		c25.45-31,50.51-63,67.44-99.61c22.607-46.242,29.746-99.112,26.02-151.55c-1.59-17.81-2.06-35.73-1.16-53.59
		c0.32-5.15-3.52-9.16-5.09-13.79c2.77-4.99,7.56-9.06,8.25-15c1.5-9.64,3.75-19.15,6.47-28.51
		c-22.886,16.314-27.919,50.991-35.11,73.94c-3.78,12.33-8.325,13.491-20.54,60.2c-2.53,9.04-3.94,18.36-6.66,27.35
		c-0.17-11.61,3.39-22.84,4.51-34.32c-8.543,15.563-10.079,42.893-11.84,61.2c-2.001,19.206,0.299,31.006-10.42,54.66
		c-8.43,15.98-21.27,29.95-37.3,38.5c4.64-9.01,6.39-19.45,4.09-29.4c-2.1,4.01-0.95,8.88-2.42,13.14
		c-2.05,8.78-6.88,19.14-16.96,20.35c3.55-2.83,7.49-5.58,9.34-9.9c4.85-10.09,3.39-21.59,2.53-32.34
		c-1.05-20.49,3.35-40.76,8.92-60.34c-8.12,9.28-9.45,22.06-12.25,33.57c-1.81-17.31,2.57-34.87,10.48-50.22
		c3.82-7.59,9.14-14.22,14.23-20.95c5.22-4.43,9.3-9.98,13.51-15.33c26.627-35.362,38.974-78.212,52.4-118.68
		c18.934-49.578,69.612-73.7,73.36-76.58c0.82-2.71-0.19-5.65-0.15-8.43c-0.8-8.73,1.62-18.33,8.51-24.19
		c6.73-5.95,15.87-7.71,24.5-8.87c22.813-0.856,17.808,3.48,64.97-12.69c6.47-2.58,13.3-4.28,19.58-7.36
		c-1.06-12.79-6.42-25.47-3.25-38.36c0.36-3.15,2.88-6.76,0.36-9.57c-4.58-6.37-8.71-13.07-11.99-20.2
		C2390.62,1670.62,2388.74,1664.53,2390.98,1658.94 M3320.17,1841.37c-3.181,12.427-12.269,93.834,8.88,180.62
		c2.45,9.01,4.33,18.26,7.72,26.99c-0.76-11.443-18.775-75.353-1.73-184.99c1.63-8.94,3.79-17.79,5.23-26.75
		C3333.46,1838.07,3326.77,1839.6,3320.17,1841.37 M3289.55,1855.55l-0.57-0.18c-31.072,20.567-56.765,50.811-97.98,95.62
		c-1.52,1.83-3.8,3.31-4.42,5.71c-5.054,3.656-18.071,20.097-30.13,31.75c-58.45,60.122-132.406,69.299-195.24,32.42
		c1.104,13.117,2.06,23.649-23.74,47.6c-8.69,7.79-12.61,19.43-14.1,30.71c-1.51,9.45,0.3,18.95,1.35,28.36
		c2.3,27.81,5.75,55.53,8.29,83.34l0.68-0.15c-0.391,8.214,5.498,49.933,6.67,58.06c0.76,2.96,0.53,6.57,2.74,8.95
		c0.01,4.13,1.89,7.9,3.51,11.63c7.554,17.517,20.282,24.374,20.61,43.65c0.344,29.718,3.548,58.111,18.33,91.4
		c3.067,8.474,17.901,41.609,34.88,60.04c0,0,235.348,5.719,459.77,27c1.618-3.971,12.384-43.479,11.49-70.46
		c-0.18-8.3,0.88-16.56,0.74-24.84c1.53-5.77,1.5-11.83,3.2-17.57c7.795-29.622,18.828-45.427,24.31-84.6
		c3.55-23.26,3.57-47.01,8.74-70.02c-2.82,0.12-5.65,0.27-8.29,1.21c-15.112,0.794-46.568,3.334-81.37-18.19
		c-5.29-3.01-9.9-7.01-15.03-10.2c-4.51-4.44-9.6-8.25-13.93-12.85c-35.088-35.312-48.833-77.482-52.65-82.54
		c0.13-0.88,0.03-1.72-0.3-2.5c-5.594-16.196-34.962-63.078-45.66-154.29c-0.64-4.41-0.57-8.94-1.98-13.19
		c0.97-3.86-0.11-8-0.13-11.94c-1.28-10.487-2.248-40.127,0.93-79.55c0.73-5.26,1.37-10.52,1.73-15.81
		C3304.16,1847.12,3296.27,1850.46,3289.55,1855.55 M2455.95,2075.99c-7.391,27.835-15.846,68.685-14.54,71.49
		c-2.802,7.594-5.884,45.643-5.26,48.02c-1.27,4.03-0.7,8.31-0.86,12.49c-0.213,15.363-1.146,58.087,12.93,73.79
		c22.197,25.298,6.613,22.939,33.33,68.66c28.719,47.63,73.628,81.618,87.29,96.71c7.702,8.594,6.293,22.484,13.52,24.47
		c8.46,2.81,16.53,6.93,23.53,12.51c2.94,2.87,7.3,1.45,10.98,1.56c15.11-0.43,30.24-0.66,45.36-1.28
		c7.416-29.438,42.07-79.41,42.07-173.39c-0.283-13.473-5.892-37.937,12.11-56.58c7.6-7.72,12.03-17.79,16.54-27.46
		c2.85-6.91,6.19-13.68,8.2-20.88c3.466-7.145,17.912-50.167,25.37-80.72c1.52-3.72,8.606-32.449,10.4-42.25
		c-121.421,37.979-228.955,25.549-317.11-21.43C2458.01,2066.31,2457.29,2071.23,2455.95,2075.99 M2330.86,2139.82
		c-28.09,21.13-55.84,42.92-80.61,67.94c-4.36,4.5-9.37,8.59-12.85,13.82c-4.969,3.843-41.062,43.172-50.59,72.27
		c-2.79,7.43-0.82,15.44-1.63,23.15c-0.12,5.37-2.1,10.43-2.72,15.74c-4.12,5.54-5.92,12.33-7.93,18.83
		c-15.795,53.929-4.183,107.699,1.14,142.37c0.9,5.15,1.05,10.59-1.67,15.28l-0.87,0.01c-0.39,1.54-0.77,3.1-1.13,4.7
		c3.761-0.285,45.931-3.71,49.39-5.22c8.47,0.18,16.89-0.91,25.35-1.3c33.568-3.369,156.448-12.925,283.07-18.47
		c2.54-5.59,6.55-10.25,10.16-15.14c-6.49,0.58-13.66,1.46-19.41-2.3c-4.17-2.42-5.62-7.22-8.04-11.06
		c-35.43-55.882-78.84-110.596-92.59-126.62c-14.296-19.207-35.437-40.165-41.93-54.81c-2.12-4.33-2.81-9.15-4.66-13.56
		c1.069-5.427,4.684-73.441-5.14-125.66c-1.78-8.13-3.03-16.46-5.98-24.25C2351.79,2123.67,2341.38,2131.82,2330.86,2139.82
		 M3576.08,2116.15c-4.09,22.67-7.93,45.39-11.89,68.08c8.153-3.62,29.711-19.387,35.46-25.56c1-9.14,0.84-18.42,0.28-27.58
		C3591.36,2127.13,3583.33,2122.17,3576.08,2116.15 M3383.79,2156.81c2.672,6.053,30.701,55.109,78.63,73.69
		c21.57,8.39,45.63,10.22,68.24,5.34c3.87-10.41,7.51-20.93,10.23-31.7c-55.578,20.303-103.09,7.027-142.81-32.21
		C3392.93,2167.24,3388.86,2161.54,3383.79,2156.81 M2831.1,2174.06c-16.31,26.1-32.83,52.07-48.31,78.66
		c-8.38,14.07-13.52,30.52-12.47,46.97c-1.08,5.6-1.37,11.47-3.88,16.71c-3.32,6.99-8.48,12.86-12.85,19.19
		c-7.476,10.105-20.342,31.363-20.08,35.05c-7.553,10.23-27.571,73.381-22.77,112.63c9.07,0.38,18.16-0.09,27.26-0.04
		c73.321-1.969,196.486-0.074,238.08,0.48c-10.34-38.22-26.25-75.23-48.98-107.76c-4.47-5.81-8.14-12.38-13.68-17.22
		c-1.216-4.186-12.398-13.366-17.34-21.78c-13.665-22.603-4.222-33.724-8.57-45.4c1.352-4.197-9.198-50.026-45.87-133.49
		C2837.47,2162.92,2834.71,2168.8,2831.1,2174.06 M3566.62,2191.57c-1.79,1.17-4.52,1.95-4.63,4.47
		c-2.14,10.99-3.95,22.05-6.77,32.89c12.59-4.08,24.32-10.4,35.85-16.84c1.67-1.18,4.31-2.01,4.41-4.44
		c1.26-8.17,1.47-16.46,2.52-24.64c0.56-4.46,0.85-8.95,0.88-13.42C3588.36,2177.24,3578.08,2185.33,3566.62,2191.57
		 M3554.87,2236.9c-4.15,1.02-4.02,6.22-5.54,9.46c-4.04,10.57-4.8,22-3.75,33.2c1.25,11.3-1.7,22.39-3.62,33.42
		c-2.69,9.7-4.92,19.55-7.74,29.22c-11.689,43.339-18.781,58.614-12.97,82.58c4.234,19.126-6.112,24.392-19.08,88.74
		c145.658,13.625,131.997,16.39,134.14,10.71c3.16-12.34,2.57-25.21,2.18-37.82c-6.494-4.494-28.56-13.354-32.61-26.46
		c-1.41-13.79,1.06-27.56,2.49-41.23c-5.74-0.04-11.89-1.11-17.27,1.32c-3.43,2.56-1.83,7.51-1.98,11.17
		c-2.75,0.26-5.5,0.11-8.14-0.46c-8.218-8.336-8.759-9.836-8.87-17.72c0.052-36.755,17.302-146.032,21.92-194.09
		C3581.37,2225.72,3568.56,2232.41,3554.87,2236.9 M3676.1,2491.49c-6.99,4.149-6.317,17.591-7.34,39.65
		c15.39,2.13,30.84,3.98,46.27,5.84c-0.45-14.32-2.55-28.58-5.24-42.63C3698.5,2494.52,3687.16,2493.72,3676.1,2491.49z"/>
	<path fill="#464654" d="M4255.61,1761.42c33.566,5.842,58.442,22.974,63.35,24.19c3.779-1.166,27.257-13.091,49.97-19.57
		c0.052,1.006,0.657,307.119,0.02,318c-22.294-3.227-563.993-95.948-572.9-96.87c-0.09,0.5-0.28,1.49-0.37,1.98
		c-4.65-20.09-11.52-39.59-19.17-58.71c-6.167-14.415-14.389-42.949-47.96-56.92c-3.85-1.72-8.67-2.16-11.13-5.96
		c-2.72-3.96-7.01-6.21-11.03-8.54c0.25-2.53,0.19-5.14,1.1-7.52c3.21-3.09,7.45-5.43,9.12-9.83c3.58-8.72,2.63-18.91-1.01-27.45
		c64.128-48.203,163.858-32.42,238.94-4.68c7.17,2.51,14.01,5.88,21.19,8.4c8.361-8.231,13.839-16.577,31.26-22.92
		c32.167-11.44,70.201,4.945,98.74,23.67c6.02-4.91,12.35-9.86,20.03-11.84c9.43-2.83,19.7-1.19,28.5,2.95
		c6.19,2.72,11.11,7.46,16.63,11.29c2.15-6.9,3.71-14,6.61-20.65C4191.681,1766.738,4219.415,1755.028,4255.61,1761.42z"/>
	<path fill="#464654" d="M3607.39,1795.03c0.6,4.19,3.23,7.47,6.12,10.42c2.75,2.45,0.31,6.08-0.17,9.01
		c-1.6,3.45,3.42,5.71,2.43,9.12c-3.75,4.09-9.23,6.1-12.93,10.27c-3.52,3.88-7.63,8.27-7.75,13.81c2.3,2.64,6.33,2.3,9.25,4.04
		c1.29,3.29-3.07,6.32-1.72,9.64c2.52,3.48,6.61,5.47,9.1,9.03c9.859,13.33-12.379,22.679-22.23,31.16
		c-4.9,4.39-9.29,10.55-8.55,17.47c1.31-2.06,2.62-4.12,3.94-6.17c-1.639,8.647-3.446,11.87,2.95,20.48
		c-0.53-3.23-1.12-6.43-1.37-9.67c3.791,7.214,1.619,10.514,11.07,16.54c-0.38-4.82-1.06-10.02,1.93-14.2
		c0.19,0.63,0.57,1.88,0.76,2.51c3.28-2.89,7.45-4.46,11.88-3.71c0.53,10.19-0.79,20.41-2.87,30.38
		c-71.549-12.261-236.866-40.104-272.46-46.47c1.24-15.37,3.22-30.68,5.94-45.86c0.07,0.63,0.21,1.88,0.28,2.5
		c6.22,0.87,12.38,2.38,18.69,2.69c3.79-22.942,6.179-23.666,10.47-34.13c-0.84-0.04-2.51-0.14-3.34-0.18
		c13.63-1.76,27.61-2.06,40.86-6c5.53-1.38,8.21-6.74,9.1-11.94c0.28-3.3,3.28-4.84,5.71-6.51
		c10.572,5.384,16.485,0.208,55.32,25.02c1.79,1.47,3.71-0.22,5.31-1.17C3521.818,1808.143,3565.127,1795.274,3607.39,1795.03z"/>
	<path fill="#464654" d="M2921.79,1811.27c21.97-10.15,47.25-9.71,70.64-5.63c12.215,2.074,159.569,27.064,171.59,29.43
		c-8.74,14.82-19.86,28.46-33.69,38.81c-10.754-2.094-149.157-25.537-158.18-27.07c-5.52-0.88-11-2.36-16.61-2.05
		C2943.94,1833.95,2933.12,1822.34,2921.79,1811.27z"/>
	<path fill="#7F7475" d="M265.96,1851.81c12.298,3.094,62.086,20.661,115.84,63.4c12.1,9.81,24.27,19.66,34.93,31.07
		c2.27,2.18,4.65,5.34,8.23,4.67c17.162-2.031,34.22-6.241,63.84,0.49c48.938,15.312,41.104,53.314,42.34,68.6
		c7.49-1.72,14.91-4.81,22.75-3.86c19.936,2.402,24.324,15.488,29.48,20.46c3.474-0.055,79.056-22.703,101.43,31.53
		c0.98,1.83,1.52,4.89,4.25,4.63c14.063,0.466,52.241-2.952,97.45,13.38c17.3,7.37,34.61,16.73,46.24,31.96
		c1.81,2.76,3.18,6.73,6.98,7.17c7.065,1.324,26.699,2.321,36.22,16.73c4.82,8.04,4.75,17.91,2.89,26.83
		c-1.06,7-4.98,13.05-7.06,19.73c8.02-1.518,35.367-9.078,58.9-1.44c6.985,4.991,21.612,9.47,26.44,30.81
		c1.2,5.2,0.71,10.59,1.23,15.89c0.53,4.96-0.29,9.92-0.28,14.9c14.14,3.04,28.58,4.43,42.74,7.39c16.5,3.27,33.42,4.49,49.55,9.5
		c6.36,1.27,12.02,5.2,18.6,5.39c32.01,0.03,64.04-0.24,96.05,0.11c-0.23-3.87-0.12-7.77,1.08-11.47
		c0.472,14.277,0.441,108.781,0.07,119.14c-21.27,0.11-42.56,0.24-63.84-0.07c-0.11-8.97,0.36-17.95-0.15-26.9
		c-21.7-0.5-43.4-0.08-65.1-0.17c-0.8-6.81-0.2-13.66-0.36-20.48c-13.59-0.3-27.18-0.18-40.77-0.08c-0.53,6.84-0.04,13.7-0.24,20.56
		c-74.79-0.06-149.58-0.06-224.37,0c-0.17-6.87,0.29-13.73-0.27-20.57c-15.73-0.25-31.46,0.14-47.18-0.14
		c-0.55-10.66-0.02-21.33-0.2-31.98c-5.333-0.628-36.501-0.416-40.83-0.14c-0.51,10.64-0.06,21.32-0.15,31.98
		c-15.87,0.59-31.76-0.05-47.64,0.28c-0.35,6.85,0.14,13.72-0.28,20.58c-30.55-0.08-61.1-0.08-91.65,0
		c-0.528-11.998-0.022-79.526-0.23-128.69c0.03-4.41-0.64-9.73,3.28-12.81c10.33-9.32,20.59-18.74,31.03-27.95
		c1.81-1.67,4.09-3.46,3.8-6.21c-0.01-12.64,0.12-25.28-0.11-37.91c-10.17-0.41-20.36,0.39-30.52-0.36
		c-10.443-51.243-54.908-100.254-123.16-103.98c-0.576-69.019,0.83-73.7-0.98-77c-1.89-2.61-6.69-2.45-8.08,0.6
		c-0.95,3.78-0.48,7.74-0.53,11.62c0.07,21.57-0.03,43.15,0.07,64.72c-9.03,0.82-18.11,1.65-26.91,3.98
		c-32.43,7.8-61.24,28.87-79.07,56.99c-8.57,13.19-13.99,28.1-17.77,43.3c-9.31,0.11-18.62,0.17-27.92-0.05
		C265.793,2112.921,265.843,1884.867,265.96,1851.81z"/>
	<path fill="#464654" d="M3288.98,1855.37c8.762,2.767,13.861,2.665,21.29,4.56c-1.18,14.64-2.05,29.31-2.15,44
		c-21-3.7-42.11-6.84-63.04-10.92C3258.41,1879.07,3272.86,1866.04,3288.98,1855.37z"/>
	<path fill="#464654" d="M3315.68,1905.04c-0.57-15.33,0.8-30.62,1.84-45.89c2.685,3.533,2.928,1.635,17.52,4.84
		c-2.43,15.63-4.57,31.32-5.72,47.1c-0.18-1.27-0.35-2.51-0.49-3.72C3324.41,1906.73,3320.03,1905.95,3315.68,1905.04z"/>
	<path fill="#7F7475" d="M173.01,1834.97c-50.58-1.36-101.8,8.99-146.95,32.13c-6.94,3.74-13.55,8.04-20.35,12.03
		c-0.177,118.192,0.051,383.714,0.12,390.54c10.94,0.23,21.92-0.51,32.85,0.35c0.19,8.99-0.36,17.99,0.19,26.99
		c23.75,0.22,47.52,0.22,71.27,0c0.52-19,0.06-38.01,0.21-57.01c-0.524-29.149,1.646-25.01-3.36-29.98
		c-9.743-8.612-32.069-28.939-33.07-29.87c-2.18-1.72-1.56-4.72-1.71-7.11c0.2-11.6-0.02-23.2,0.04-34.79
		c4.549-0.579,91.186,0.041,100.69-0.32C173.126,2103.081,173.06,1860.132,173.01,1834.97z"/>
	<path fill="#4D403E" d="M2221.39,2508.71c-3.459,1.51-45.628,4.935-49.39,5.22c0.36-1.6,0.74-3.16,1.13-4.7
		C2203.771,2508.877,2208.767,2508.398,2221.39,2508.71z"/>
	<path fill="#2E2430" d="M885.62,2690.38c19.25,6.18,38.65,11.95,57.64,18.91c-25.103,5.113-241.442,47.592-390.33,74.64
		c-181.41,32.93-363.55,62.62-546.97,81.86c-0.105-34.349-0.244-276.95,0.12-295.56C286.787,2550.27,610.43,2604.483,885.62,2690.38
		z"/>
</g>
</svg>
